<mxfile host="app.diagrams.net" modified="2025-09-05T11:51:38.754Z" agent="5.0" etag="draw.io" version="24.7.17">
  <diagram name="AWS Infrastructure Detailed" id="aws-infrastructure-detailed">
    <mxGraphModel dx="1600" dy="900" grid="1" gridSize="10" guides="1" tooltips="1" connect="1" arrows="1" fold="1" page="1" pageScale="1" pageWidth="1600" pageHeight="1200" math="0" shadow="0">
      <root>
        <mxCell id="0" />
        <mxCell id="1" parent="0" />
        
        <!-- User/Client Side -->
        <mxCell id="client-zone" value="Client Environment" style="rounded=1;whiteSpace=wrap;html=1;fillColor=#e1d5e7;strokeColor=#9673a6;fontSize=14;fontStyle=1;verticalAlign=top;spacingTop=10;" vertex="1" parent="1">
          <mxGeometry x="40" y="40" width="300" height="200" as="geometry" />
        </mxCell>
        
        <mxCell id="macos-device" value="💻 macOS Device&#xa;Q CLI + MCP Servers" style="rounded=1;whiteSpace=wrap;html=1;fillColor=#fff2cc;strokeColor=#d6b656;" vertex="1" parent="1">
          <mxGeometry x="60" y="80" width="120" height="60" as="geometry" />
        </mxCell>
        
        <mxCell id="local-processing" value="🔧 Local Processing&#xa;• Accessibility API&#xa;• IOKit&#xa;• Vision Framework" style="rounded=1;whiteSpace=wrap;html=1;fillColor=#fff2cc;strokeColor=#d6b656;" vertex="1" parent="1">
          <mxGeometry x="200" y="80" width="120" height="60" as="geometry" />
        </mxCell>
        
        <!-- Internet Gateway -->
        <mxCell id="internet-gateway" value="🌐 Internet Gateway" style="sketch=0;points=[[0,0,0],[0.25,0,0],[0.5,0,0],[0.75,0,0],[1,0,0],[0,1,0],[0.25,1,0],[0.5,1,0],[0.75,1,0],[1,1,0]];outlineConnect=0;gradientColor=none;html=1;whiteSpace=wrap;fontSize=12;fontStyle=0;container=1;pointerEvents=0;collapsible=0;recursiveResize=0;shape=mxgraph.aws4.group;grIcon=mxgraph.aws4.group_internet_gateway;strokeColor=#8C4FFF;fillColor=none;verticalAlign=top;align=left;spacingLeft=30;fontColor=#AAB7B8;dashed=0;" vertex="1" parent="1">
          <mxGeometry x="400" y="120" width="120" height="80" as="geometry" />
        </mxCell>
        
        <!-- AWS Cloud -->
        <mxCell id="aws-cloud" value="AWS Cloud" style="sketch=0;outlineConnect=0;gradientColor=none;html=1;whiteSpace=wrap;fontSize=16;fontStyle=1;shape=mxgraph.aws4.group;grIcon=mxgraph.aws4.group_aws_cloud;strokeColor=#232F3E;fillColor=none;verticalAlign=top;align=left;spacingLeft=30;fontColor=#232F3E;dashed=0;" vertex="1" parent="1">
          <mxGeometry x="580" y="40" width="980" height="1120" as="geometry" />
        </mxCell>
        
        <!-- API Gateway -->
        <mxCell id="api-gateway" value="🚪 API Gateway&#xa;REST API Endpoints" style="sketch=0;points=[[0,0,0],[0.25,0,0],[0.5,0,0],[0.75,0,0],[1,0,0],[0,1,0],[0.25,1,0],[0.5,1,0],[0.75,1,0],[1,1,0]];outlineConnect=0;gradientColor=none;html=1;whiteSpace=wrap;fontSize=12;fontStyle=0;container=1;pointerEvents=0;collapsible=0;recursiveResize=0;shape=mxgraph.aws4.api_gateway;" vertex="1" parent="1">
          <mxGeometry x="620" y="120" width="80" height="80" as="geometry" />
        </mxCell>
        
        <!-- AI/ML Services Zone -->
        <mxCell id="ai-ml-zone" value="AI/ML Services" style="rounded=1;whiteSpace=wrap;html=1;fillColor=#ffe6cc;strokeColor=#d79b00;fontSize=14;fontStyle=1;verticalAlign=top;spacingTop=10;" vertex="1" parent="1">
          <mxGeometry x="620" y="240" width="400" height="200" as="geometry" />
        </mxCell>
        
        <mxCell id="bedrock" value="🤖 Amazon Bedrock&#xa;Claude 3.5 Sonnet&#xa;• Screen Analysis&#xa;• Workflow Planning&#xa;• Natural Language Processing" style="sketch=0;points=[[0,0,0],[0.25,0,0],[0.5,0,0],[0.75,0,0],[1,0,0],[0,1,0],[0.25,1,0],[0.5,1,0],[0.75,1,0],[1,1,0]];outlineConnect=0;gradientColor=none;html=1;whiteSpace=wrap;fontSize=11;fontStyle=0;container=1;pointerEvents=0;collapsible=0;recursiveResize=0;shape=mxgraph.aws4.bedrock;" vertex="1" parent="1">
          <mxGeometry x="640" y="280" width="120" height="80" as="geometry" />
        </mxCell>
        
        <mxCell id="rekognition" value="👁️ Amazon Rekognition&#xa;• Text Detection (OCR)&#xa;• Object Recognition&#xa;• UI Element Analysis&#xa;• Custom Labels" style="sketch=0;points=[[0,0,0],[0.25,0,0],[0.5,0,0],[0.75,0,0],[1,0,0],[0,1,0],[0.25,1,0],[0.5,1,0],[0.75,1,0],[1,1,0]];outlineConnect=0;gradientColor=none;html=1;whiteSpace=wrap;fontSize=11;fontStyle=0;container=1;pointerEvents=0;collapsible=0;recursiveResize=0;shape=mxgraph.aws4.rekognition;" vertex="1" parent="1">
          <mxGeometry x="780" y="280" width="120" height="80" as="geometry" />
        </mxCell>
        
        <mxCell id="textract" value="📄 Amazon Textract&#xa;• Document Analysis&#xa;• Table Extraction&#xa;• Form Processing&#xa;• Handwriting Recognition" style="sketch=0;points=[[0,0,0],[0.25,0,0],[0.5,0,0],[0.75,0,0],[1,0,0],[0,1,0],[0.25,1,0],[0.5,1,0],[0.75,1,0],[1,1,0]];outlineConnect=0;gradientColor=none;html=1;whiteSpace=wrap;fontSize=11;fontStyle=0;container=1;pointerEvents=0;collapsible=0;recursiveResize=0;shape=mxgraph.aws4.textract;" vertex="1" parent="1">
          <mxGeometry x="640" y="380" width="120" height="80" as="geometry" />
        </mxCell>
        
        <mxCell id="comprehend" value="🧠 Amazon Comprehend&#xa;• Sentiment Analysis&#xa;• Entity Recognition&#xa;• Language Detection&#xa;• Email Classification" style="sketch=0;points=[[0,0,0],[0.25,0,0],[0.5,0,0],[0.75,0,0],[1,0,0],[0,1,0],[0.25,1,0],[0.5,1,0],[0.75,1,0],[1,1,0]];outlineConnect=0;gradientColor=0;html=1;whiteSpace=wrap;fontSize=11;fontStyle=0;container=1;pointerEvents=0;collapsible=0;recursiveResize=0;shape=mxgraph.aws4.comprehend;" vertex="1" parent="1">
          <mxGeometry x="780" y="380" width="120" height="80" as="geometry" />
        </mxCell>
        
        <!-- Compute Services Zone -->
        <mxCell id="compute-zone" value="Compute Services" style="rounded=1;whiteSpace=wrap;html=1;fillColor=#dae8fc;strokeColor=#6c8ebf;fontSize=14;fontStyle=1;verticalAlign=top;spacingTop=10;" vertex="1" parent="1">
          <mxGeometry x="1080" y="240" width="400" height="200" as="geometry" />
        </mxCell>
        
        <mxCell id="lambda" value="⚡ AWS Lambda&#xa;• MCP Server Runtime&#xa;• Event Processing&#xa;• Workflow Orchestration&#xa;• Auto Scaling" style="sketch=0;points=[[0,0,0],[0.25,0,0],[0.5,0,0],[0.75,0,0],[1,0,0],[0,1,0],[0.25,1,0],[0.5,1,0],[0.75,1,0],[1,1,0]];outlineConnect=0;gradientColor=none;html=1;whiteSpace=wrap;fontSize=11;fontStyle=0;container=1;pointerEvents=0;collapsible=0;recursiveResize=0;shape=mxgraph.aws4.lambda;" vertex="1" parent="1">
          <mxGeometry x="1100" y="280" width="120" height="80" as="geometry" />
        </mxCell>
        
        <mxCell id="step-functions" value="🔄 Step Functions&#xa;• Workflow Orchestration&#xa;• Error Handling&#xa;• State Management&#xa;• Retry Logic" style="sketch=0;points=[[0,0,0],[0.25,0,0],[0.5,0,0],[0.75,0,0],[1,0,0],[0,1,0],[0.25,1,0],[0.5,1,0],[0.75,1,0],[1,1,0]];outlineConnect=0;gradientColor=none;html=1;whiteSpace=wrap;fontSize=11;fontStyle=0;container=1;pointerEvents=0;collapsible=0;recursiveResize=0;shape=mxgraph.aws4.step_functions;" vertex="1" parent="1">
          <mxGeometry x="1240" y="280" width="120" height="80" as="geometry" />
        </mxCell>
        
        <mxCell id="eventbridge" value="📡 EventBridge&#xa;• Event Routing&#xa;• Schedule Triggers&#xa;• Custom Events&#xa;• Integration Hub" style="sketch=0;points=[[0,0,0],[0.25,0,0],[0.5,0,0],[0.75,0,0],[1,0,0],[0,1,0],[0.25,1,0],[0.5,1,0],[0.75,1,0],[1,1,0]];outlineConnect=0;gradientColor=none;html=1;whiteSpace=wrap;fontSize=11;fontStyle=0;container=1;pointerEvents=0;collapsible=0;recursiveResize=0;shape=mxgraph.aws4.eventbridge;" vertex="1" parent="1">
          <mxGeometry x="1100" y="380" width="120" height="80" as="geometry" />
        </mxCell>
        
        <mxCell id="sqs" value="📬 Amazon SQS&#xa;• Message Queuing&#xa;• Async Processing&#xa;• Dead Letter Queue&#xa;• Batch Operations" style="sketch=0;points=[[0,0,0],[0.25,0,0],[0.5,0,0],[0.75,0,0],[1,0,0],[0,1,0],[0.25,1,0],[0.5,1,0],[0.75,1,0],[1,1,0]];outlineConnect=0;gradientColor=none;html=1;whiteSpace=wrap;fontSize=11;fontStyle=0;container=1;pointerEvents=0;collapsible=0;recursiveResize=0;shape=mxgraph.aws4.sqs;" vertex="1" parent="1">
          <mxGeometry x="1240" y="380" width="120" height="80" as="geometry" />
        </mxCell>
      </root>
    </mxGraphModel>
  </diagram>
</mxfile>
